# xmcd
#
# Track frame offsets: 
#        150
#        17550
#        36566
#        50092
#        67730
#        83662
#        93283
#        111052
#        129662
#
# Disc length: 1987 seconds
#
# Revision: 0
# Processed by: cddbd v1.4PL0 Copyright (c) Steve Scherf et al.
# Submitted via: ExactAudioCopy v0.90b4
#
DISCID=6e07c109
DTITLE=Sebkultur - Die Erste
DYEAR=1996
DGENRE=Pop
TTITLE0=Chrom Jazz
TTITLE1=Nummer Eins
TTITLE2=Klavier 2
TTITLE3=Diddiliditt
TTITLE4=Funk Jazz
TTITLE5=Lösch
TTITLE6=Afrika
TTITLE7=Klavier 1
TTITLE8=Sparkassen Jazz
EXTD=
EXTT0=
EXTT1=
EXTT2=
EXTT3=
EXTT4=
EXTT5=
EXTT6=
EXTT7=
EXTT8=
PLAYORDER=
